<?xml version="1.0" encoding="UTF-8" standalone="no"?>
<svg
   xmlns:dc="http://purl.org/dc/elements/1.1/"
   xmlns:cc="http://creativecommons.org/ns#"
   xmlns:rdf="http://www.w3.org/1999/02/22-rdf-syntax-ns#"
   xmlns:svg="http://www.w3.org/2000/svg"
   xmlns="http://www.w3.org/2000/svg"
   xmlns:sodipodi="http://sodipodi.sourceforge.net/DTD/sodipodi-0.dtd"
   xmlns:inkscape="http://www.inkscape.org/namespaces/inkscape"
   width="299.18054mm"
   height="161.32204mm"
   viewBox="0 0 299.18054 161.32204"
   version="1.1"
   id="svg8"
   inkscape:version="1.0.1 (3bc2e813f5, 2020-09-07)"
   sodipodi:docname="ostree-hawkbit-static-deltas.svg">
  <defs
     id="defs2">
    <marker
       inkscape:stockid="Arrow2Lstart"
       orient="auto"
       refY="0"
       refX="0"
       id="Arrow2Lstart"
       style="overflow:visible"
       inkscape:isstock="true">
      <path
         id="path929"
         style="fill-rule:evenodd;stroke-width:0.625;stroke-linejoin:round"
         d="M 8.7185878,4.0337352 -2.2072895,0.01601326 8.7185884,-4.0017078 c -1.7454984,2.3720609 -1.7354408,5.6174519 -6e-7,8.035443 z"
         transform="matrix(1.1,0,0,1.1,1.1,0)" />
    </marker>
    <marker
       inkscape:isstock="true"
       style="overflow:visible"
       id="marker2476"
       refX="0"
       refY="0"
       orient="auto"
       inkscape:stockid="Arrow2Lend">
      <path
         transform="matrix(-1.1,0,0,-1.1,-1.1,0)"
         d="M 8.7185878,4.0337352 -2.2072895,0.01601326 8.7185884,-4.0017078 c -1.7454984,2.3720609 -1.7354408,5.6174519 -6e-7,8.035443 z"
         style="fill:#ff0000;fill-opacity:1;fill-rule:evenodd;stroke:none;stroke-width:0.625;stroke-linejoin:round;stroke-opacity:1"
         id="path2474" />
    </marker>
    <marker
       inkscape:isstock="true"
       style="overflow:visible"
       id="marker2422"
       refX="0"
       refY="0"
       orient="auto"
       inkscape:stockid="Arrow2Lend">
      <path
         transform="matrix(-1.1,0,0,-1.1,-1.1,0)"
         d="M 8.7185878,4.0337352 -2.2072895,0.01601326 8.7185884,-4.0017078 c -1.7454984,2.3720609 -1.7354408,5.6174519 -6e-7,8.035443 z"
         style="fill:#000000;fill-opacity:1;fill-rule:evenodd;stroke:#000000;stroke-width:0.625;stroke-linejoin:round;stroke-opacity:1"
         id="path2420" />
    </marker>
    <marker
       inkscape:stockid="Arrow2Lend"
       orient="auto"
       refY="0"
       refX="0"
       id="Arrow2Lend"
       style="overflow:visible"
       inkscape:isstock="true"
       inkscape:collect="always">
      <path
         id="path932"
         style="fill:#000000;fill-opacity:1;fill-rule:evenodd;stroke:#000000;stroke-width:0.625;stroke-linejoin:round;stroke-opacity:1"
         d="M 8.7185878,4.0337352 -2.2072895,0.01601326 8.7185884,-4.0017078 c -1.7454984,2.3720609 -1.7354408,5.6174519 -6e-7,8.035443 z"
         transform="matrix(-1.1,0,0,-1.1,-1.1,0)" />
    </marker>
    <inkscape:path-effect
       effect="powerstroke"
       id="path-effect905"
       is_visible="true"
       offset_points="0,0.13229166"
       sort_points="true"
       interpolator_type="CubicBezierJohan"
       interpolator_beta="0.2"
       start_linecap_type="zerowidth"
       linejoin_type="extrp_arc"
       miter_limit="4"
       end_linecap_type="zerowidth"
       lpeversion="0"
       scale_width="1" />
    <marker
       inkscape:stockid="Arrow2Lend"
       orient="auto"
       refY="0"
       refX="0"
       id="Arrow2Lend-8"
       style="overflow:visible"
       inkscape:isstock="true">
      <path
         inkscape:connector-curvature="0"
         id="path932-9"
         style="fill:#000000;fill-opacity:1;fill-rule:evenodd;stroke:#000000;stroke-width:0.625;stroke-linejoin:round;stroke-opacity:1"
         d="M 8.7185878,4.0337352 -2.2072895,0.01601326 8.7185884,-4.0017078 c -1.7454984,2.3720609 -1.7354408,5.6174519 -6e-7,8.035443 z"
         transform="matrix(-1.1,0,0,-1.1,-1.1,0)" />
    </marker>
    <marker
       inkscape:stockid="Arrow2Lend"
       orient="auto"
       refY="0"
       refX="0"
       id="Arrow2Lend-6"
       style="overflow:visible"
       inkscape:isstock="true">
      <path
         inkscape:connector-curvature="0"
         id="path932-6"
         style="fill:#000000;fill-opacity:1;fill-rule:evenodd;stroke:#000000;stroke-width:0.625;stroke-linejoin:round;stroke-opacity:1"
         d="M 8.7185878,4.0337352 -2.2072895,0.01601326 8.7185884,-4.0017078 c -1.7454984,2.3720609 -1.7354408,5.6174519 -6e-7,8.035443 z"
         transform="matrix(-1.1,0,0,-1.1,-1.1,0)" />
    </marker>
    <marker
       inkscape:stockid="Arrow2Lend"
       orient="auto"
       refY="0"
       refX="0"
       id="Arrow2Lend-9"
       style="overflow:visible"
       inkscape:isstock="true">
      <path
         inkscape:connector-curvature="0"
         id="path932-5"
         style="fill:#000000;fill-opacity:1;fill-rule:evenodd;stroke:#000000;stroke-width:0.625;stroke-linejoin:round;stroke-opacity:1"
         d="M 8.7185878,4.0337352 -2.2072895,0.01601326 8.7185884,-4.0017078 c -1.7454984,2.3720609 -1.7354408,5.6174519 -6e-7,8.035443 z"
         transform="matrix(-1.1,0,0,-1.1,-1.1,0)" />
    </marker>
    <marker
       inkscape:stockid="Arrow2Lend"
       orient="auto"
       refY="0"
       refX="0"
       id="Arrow2Lend-9-9"
       style="overflow:visible"
       inkscape:isstock="true">
      <path
         inkscape:connector-curvature="0"
         id="path932-5-2"
         style="fill:#000000;fill-opacity:1;fill-rule:evenodd;stroke:#000000;stroke-width:0.625;stroke-linejoin:round;stroke-opacity:1"
         d="M 8.7185878,4.0337352 -2.2072895,0.01601326 8.7185884,-4.0017078 c -1.7454984,2.3720609 -1.7354408,5.6174519 -6e-7,8.035443 z"
         transform="matrix(-1.1,0,0,-1.1,-1.1,0)" />
    </marker>
    <marker
       inkscape:stockid="Arrow2Lend"
       orient="auto"
       refY="0"
       refX="0"
       id="Arrow2Lend-87"
       style="overflow:visible"
       inkscape:isstock="true"
       inkscape:collect="always">
      <path
         inkscape:connector-curvature="0"
         id="path932-1"
         style="fill:#000000;fill-opacity:1;fill-rule:evenodd;stroke:#000000;stroke-width:0.625;stroke-linejoin:round;stroke-opacity:1"
         d="M 8.7185878,4.0337352 -2.2072895,0.01601326 8.7185884,-4.0017078 c -1.7454984,2.3720609 -1.7354408,5.6174519 -6e-7,8.035443 z"
         transform="matrix(-1.1,0,0,-1.1,-1.1,0)" />
    </marker>
    <marker
       inkscape:stockid="Arrow2Lend"
       orient="auto"
       refY="0"
       refX="0"
       id="Arrow2Lend-0"
       style="overflow:visible"
       inkscape:isstock="true"
       inkscape:collect="always">
      <path
         id="path932-61"
         style="fill:#000000;fill-opacity:1;fill-rule:evenodd;stroke:#000000;stroke-width:0.625;stroke-linejoin:round;stroke-opacity:1"
         d="M 8.7185878,4.0337352 -2.2072895,0.01601326 8.7185884,-4.0017078 c -1.7454984,2.3720609 -1.7354408,5.6174519 -6e-7,8.035443 z"
         transform="matrix(-1.1,0,0,-1.1,-1.1,0)" />
    </marker>
    <marker
       inkscape:stockid="Arrow2Lend"
       orient="auto"
       refY="0"
       refX="0"
       id="Arrow2Lend-6-5"
       style="overflow:visible"
       inkscape:isstock="true">
      <path
         inkscape:connector-curvature="0"
         id="path932-6-9"
         style="fill:#000000;fill-opacity:1;fill-rule:evenodd;stroke:#000000;stroke-width:0.625;stroke-linejoin:round;stroke-opacity:1"
         d="M 8.7185878,4.0337352 -2.2072895,0.01601326 8.7185884,-4.0017078 c -1.7454984,2.3720609 -1.7354408,5.6174519 -6e-7,8.035443 z"
         transform="matrix(-1.1,0,0,-1.1,-1.1,0)" />
    </marker>
  </defs>
  <sodipodi:namedview
     id="base"
     pagecolor="#ffffff"
     bordercolor="#666666"
     borderopacity="1.0"
     inkscape:pageopacity="0.0"
     inkscape:pageshadow="2"
     inkscape:zoom="1"
     inkscape:cx="569.63028"
     inkscape:cy="425.36834"
     inkscape:document-units="mm"
     inkscape:current-layer="g6768"
     showgrid="false"
     inkscape:window-width="1870"
     inkscape:window-height="1272"
     inkscape:window-x="26"
     inkscape:window-y="23"
     inkscape:window-maximized="0"
     inkscape:document-rotation="0"
     fit-margin-top="5"
     fit-margin-left="5"
     fit-margin-right="5"
     fit-margin-bottom="5" />
  <metadata
     id="metadata5">
    <rdf:RDF>
      <cc:Work
         rdf:about="">
        <dc:format>image/svg+xml</dc:format>
        <dc:type
           rdf:resource="http://purl.org/dc/dcmitype/StillImage" />
        <dc:title></dc:title>
      </cc:Work>
    </rdf:RDF>
  </metadata>
  <g
     inkscape:label="Livello 1"
     inkscape:groupmode="layer"
     id="layer1"
     transform="translate(1.0903754,-87.811636)"
     style="display:inline">
    <g
       id="g6768"
       transform="translate(-0.1630342,0.04220774)">
      <rect
         ry="3.4272497"
         y="96.918671"
         x="4.4625268"
         height="145.02408"
         width="48.404793"
         id="rect6571"
         style="opacity:1;vector-effect:none;fill:#ffffff;fill-opacity:1;stroke:#552462;stroke-width:0.779736;stroke-linecap:butt;stroke-linejoin:miter;stroke-miterlimit:4;stroke-dasharray:none;stroke-dashoffset:0;stroke-opacity:1" />
      <text
         id="text837"
         y="97.462128"
         x="77.251907"
         style="font-style:normal;font-weight:normal;font-size:9.26476px;line-height:1;font-family:sans-serif;letter-spacing:0px;word-spacing:0px;fill:#000000;fill-opacity:1;stroke:none;stroke-width:0.231619"
         xml:space="preserve"><tspan
           id="tspan847"
           style="font-size:6.17651px;line-height:1;stroke-width:0.231619"
           y="97.462128"
           x="77.251907"
           sodipodi:role="line">reports metadata</tspan><tspan
           id="tspan851"
           style="font-size:6.17651px;line-height:1;stroke-width:0.231619"
           y="106.72689"
           x="77.251907"
           sodipodi:role="line">(device id, current version, etc.)</tspan></text>
      <text
         id="text837-8"
         y="126.63605"
         x="77.251907"
         style="font-style:normal;font-weight:normal;font-size:9.26476px;line-height:1;font-family:sans-serif;letter-spacing:0px;word-spacing:0px;fill:#000000;fill-opacity:1;stroke:none;stroke-width:0.231619"
         xml:space="preserve"><tspan
           id="tspan851-3"
           style="font-size:6.17651px;line-height:1;stroke-width:0.231619"
           y="126.63605"
           x="77.251907"
           sodipodi:role="line">initiates update</tspan><tspan
           id="tspan876"
           style="font-size:6.17651px;line-height:1;stroke-width:0.231619"
           y="135.9008"
           x="77.251907"
           sodipodi:role="line">(specifies update URL)</tspan></text>
      <text
         id="text837-8-1"
         y="161.29253"
         x="77.251907"
         style="font-style:normal;font-weight:normal;font-size:9.26476px;line-height:1;font-family:sans-serif;letter-spacing:0px;word-spacing:0px;fill:#000000;fill-opacity:1;stroke:none;stroke-width:0.231619"
         xml:space="preserve"><tspan
           id="tspan6634"
           style="font-size:6.17651px;line-height:1;stroke-width:0.231619"
           y="161.29253"
           x="77.251907"
           sodipodi:role="line">requests specified update</tspan></text>
      <path
         sodipodi:nodetypes="cc"
         inkscape:connector-curvature="0"
         id="path901"
         d="M 63.107753,111.26622 H 206.4868"
         style="opacity:1;vector-effect:none;fill:none;fill-opacity:1;stroke:#000000;stroke-width:0.834831;stroke-linecap:butt;stroke-linejoin:miter;stroke-miterlimit:4;stroke-dasharray:none;stroke-dashoffset:0;stroke-opacity:1;marker-end:url(#Arrow2Lend)" />
      <path
         sodipodi:nodetypes="cc"
         inkscape:connector-curvature="0"
         id="path901-4"
         d="M 207.81769,141.84025 H 64.438645"
         style="fill:none;stroke:#000000;stroke-width:0.834831;stroke-linecap:butt;stroke-linejoin:miter;stroke-miterlimit:4;stroke-dasharray:none;stroke-opacity:1;marker-end:url(#Arrow2Lend-6)" />
      <g
         transform="matrix(0.87541065,0,0,0.87541065,35.130355,-9.3994377)"
         id="g6705">
        <text
           xml:space="preserve"
           style="font-style:normal;font-weight:normal;font-size:10.5833px;line-height:1.25;font-family:sans-serif;letter-spacing:0px;word-spacing:0px;fill:#000000;fill-opacity:1;stroke:none;stroke-width:0.264583"
           x="-24.738819"
           y="146.79454"
           id="text817"><tspan
             sodipodi:role="line"
             id="tspan815"
             x="-24.738819"
             y="146.79454"
             style="stroke-width:0.264583">field</tspan><tspan
             sodipodi:role="line"
             x="-24.738819"
             y="160.02367"
             style="stroke-width:0.264583"
             id="tspan829">device</tspan></text>
        <g
           id="use8485"
           transform="matrix(1.4285714,0,0,1.4285714,-24.495939,166.97408)"
           style="fill:#69b151;fill-opacity:1">
          <title
             id="title869">icon circuit-board</title>
          <path
             inkscape:connector-curvature="0"
             id="path871"
             d="M 3,4 C 3,3.45 3.45,3 4,3 4.55,3 5,3.45 5,4 5,4.55 4.55,5 4,5 3.45,5 3,4.55 3,4 Z m 8,0 C 11,3.45 10.55,3 10,3 9.45,3 9,3.45 9,4 c 0,0.55 0.45,1 1,1 0.55,0 1,-0.45 1,-1 z m 0,6 C 11,9.45 10.55,9 10,9 9.45,9 9,9.45 9,10 c 0,0.55 0.45,1 1,1 0.55,0 1,-0.45 1,-1 z M 13,0 H 5 V 2.17 C 5.36,2.36 5.64,2.64 5.83,3 H 8.17 C 8.59,2.22 9.5,1.72 10.51,1.95 11.26,2.14 11.87,2.75 12.04,3.5 12.35,4.88 11.32,6.09 9.99,6.09 9.19,6.09 8.51,5.65 8.16,5 H 5.83 C 5.41,5.8 4.5,6.28 3.49,6.03 2.76,5.86 2.15,5.25 1.97,4.51 1.72,3.49 2.2,2.59 3,2.17 V 0 H 1 C 0.45,0 0,0.45 0,1 v 12 c 0,0.55 0.45,1 1,1 L 6,9 H 8.17 C 8.59,8.22 9.5,7.72 10.51,7.95 c 0.75,0.19 1.36,0.8 1.53,1.55 0.31,1.38 -0.72,2.59 -2.05,2.59 -0.8,0 -1.48,-0.44 -1.83,-1.09 H 6.99 L 4,14 h 9 c 0.55,0 1,-0.45 1,-1 V 1 C 14,0.45 13.55,0 13,0 Z"
             style="fill:#69b151;fill-opacity:1" />
        </g>
      </g>
      <rect
         ry="3.447449"
         y="96.919685"
         x="217.55315"
         height="145.87883"
         width="75.309387"
         id="rect6571-2"
         style="display:inline;opacity:1;vector-effect:none;fill:#ffffff;fill-opacity:1;stroke:#552462;stroke-width:0.781377;stroke-linecap:butt;stroke-linejoin:miter;stroke-miterlimit:4;stroke-dasharray:none;stroke-dashoffset:0;stroke-opacity:1" />
      <g
         transform="matrix(0.87541065,0,0,0.87541065,35.130355,5.5006087)"
         id="g6697">
        <text
           xml:space="preserve"
           style="font-style:normal;font-weight:normal;font-size:10.5833px;line-height:1.25;font-family:sans-serif;letter-spacing:0px;word-spacing:0px;fill:#000000;fill-opacity:1;stroke:none;stroke-width:0.264583"
           x="216.97983"
           y="129.7739"
           id="text821"><tspan
             sodipodi:role="line"
             x="216.97983"
             y="129.7739"
             style="stroke-width:0.264583"
             id="tspan831">rollout</tspan><tspan
             sodipodi:role="line"
             x="216.97983"
             y="143.00302"
             style="stroke-width:0.264583"
             id="tspan833">management</tspan></text>
        <g
           id="g6539"
           transform="matrix(0.89798037,0,0,0.89798037,25.943417,19.972736)">
          <path
             inkscape:connector-curvature="0"
             id="path6422"
             d="m 229.51197,145.95093 c -0.19264,-0.004 -0.38034,0.0313 -0.53521,0.11032 -0.83373,0.42533 -0.98767,1.43904 -0.31696,2.08826 l 0.21517,0.208 -0.34531,1.27332 c -0.23516,0.86779 -0.32692,1.2915 -0.28793,1.33069 0.0315,0.0317 0.13803,0.0855 0.2367,0.11955 0.0987,0.0343 0.20759,0.0515 0.24182,0.0389 0.0342,-0.0126 0.20733,-0.55675 0.38459,-1.2091 0.40402,-1.4869 0.38495,-1.43794 0.56083,-1.43794 0.0787,0 0.23669,-0.039 0.35112,-0.0868 0.83618,-0.3493 1.03212,-1.47527 0.36683,-2.1067 -0.21636,-0.20535 -0.55057,-0.32167 -0.87165,-0.32858 z m 4.09319,0.11135 c -0.19533,-0.005 -0.39472,0.0343 -0.58338,0.12295 -0.4873,0.22907 -0.72176,0.64699 -0.68892,1.22857 0.0165,0.29102 0.0553,0.42361 0.17727,0.60797 l 0.1561,0.23567 -1.03901,1.74807 c -0.4474,0.75276 -0.82737,1.42239 -0.97275,1.7088 l -0.0816,0.13697 0.0167,0.0143 c 0.003,0.0598 0.07,0.14771 0.15302,0.19776 0.18994,0.11464 0.25266,0.12169 0.33745,0.0369 0.0365,-0.0365 0.52621,-0.84017 1.08819,-1.78565 l 1.02193,-1.71904 0.42388,-0.0191 c 0.34975,-0.0159 0.4651,-0.0465 0.65749,-0.17385 0.37398,-0.24749 0.53739,-0.54495 0.55775,-1.01544 0.0155,-0.35779 6.5e-4,-0.42565 -0.1537,-0.68994 -0.23071,-0.39505 -0.6407,-0.62324 -1.07043,-0.63494 z m -7.67233,0.67661 c -0.94817,0 -1.55612,0.96547 -1.14147,1.81297 0.14736,0.30121 0.3997,0.54395 0.6732,0.64793 l 0.14379,0.0547 v 0.92253 0.92288 l -0.2326,0.21689 c -0.20709,0.19321 -0.23514,0.25054 -0.25787,0.52462 -0.0298,0.35915 0.067,0.59324 0.32345,0.78284 l 0.16702,0.12365 v 1.18792 1.18792 l -0.2828,0.0608 c -0.15541,0.0333 -0.31431,0.0605 -0.35317,0.0605 -0.0428,0 -0.19739,-0.40941 -0.3921,-1.03799 l -0.30877,-0.99631 c -4.4e-4,-0.0246 0.001,-0.0459 0.006,-0.0632 l 0.1472,-0.16771 c 0.19007,-0.21644 0.25883,-0.45852 0.20767,-0.73127 -0.0617,-0.32865 -0.45965,-0.69677 -0.75313,-0.69677 -0.0947,0 -0.15057,-0.12271 -0.36649,-0.80504 -0.14012,-0.4428 -0.25479,-0.8556 -0.25479,-0.91707 0,-0.0615 0.0601,-0.15101 0.13354,-0.19912 0.0734,-0.0481 0.19923,-0.21962 0.27974,-0.38118 0.32225,-0.64666 0.0868,-1.3833 -0.54239,-1.69684 -0.87513,-0.4361 -1.84794,0.15185 -1.84849,1.11722 -3.6e-4,0.66066 0.428,1.15872 1.07623,1.25145 l 0.25652,0.0369 0.2746,0.88463 0.27461,0.88428 -0.11988,0.21382 c -0.26512,0.47171 -0.0877,1.06053 0.3822,1.26785 0.21217,0.0936 0.23284,0.12455 0.36409,0.55024 0.0765,0.24802 0.22473,0.72776 0.3296,1.06633 0.10488,0.33855 0.17911,0.63519 0.16497,0.65886 -0.0141,0.0237 -0.14916,0.10532 -0.29988,0.1817 l -0.27393,0.13901 -0.21518,-0.29407 c -0.11829,-0.16161 -0.38566,-0.5398 -0.5943,-0.84057 -0.35821,-0.51637 -0.37624,-0.55647 -0.31867,-0.7217 0.0974,-0.27935 0.0743,-0.65548 -0.0529,-0.8614 -0.1403,-0.227 -0.5306,-0.42537 -0.80129,-0.40713 -0.10986,0.007 -0.20929,0.003 -0.22098,-0.0116 -0.0117,-0.014 -0.23191,-0.33383 -0.48911,-0.71078 l -0.46758,-0.6855 0.11954,-0.24592 c 0.25777,-0.53058 0.21106,-1.02548 -0.13526,-1.43008 -0.61667,-0.72044 -1.69693,-0.59965 -2.11354,0.23635 -0.23942,0.48046 -0.17069,1.00351 0.18308,1.39628 0.29284,0.32512 0.60192,0.44931 1.06257,0.42591 l 0.34805,-0.0181 c 0.0239,0.0212 0.0588,0.0602 0.0936,0.0994 l 0.42079,0.59908 c 0.38543,0.54875 0.48536,0.7298 0.46316,0.83954 -0.0957,0.47291 -0.0947,0.50115 0.0256,0.74971 0.14348,0.29639 0.38204,0.46213 0.72137,0.50106 0.13362,0.0153 0.25403,0.0392 0.26778,0.0529 0.0966,0.0966 1.1401,1.64431 1.1401,1.69104 0,0.0323 -0.13313,0.19015 -0.29578,0.35078 l -0.24148,0.23874 c -0.03,0.0192 -0.0571,0.035 -0.0731,0.0383 l -0.74561,-0.61446 -0.7644,-0.62982 -0.003,-0.31355 c -0.007,-0.66561 -0.48305,-1.01828 -1.17802,-0.87199 -0.18656,0.0393 -0.22519,0.0169 -0.81153,-0.47032 -0.52389,-0.43532 -0.61353,-0.5334 -0.60216,-0.65885 0.0658,-0.72731 -0.005,-1.02624 -0.31901,-1.33992 -0.4975,-0.49751 -1.21409,-0.5293 -1.74227,-0.0772 -0.29261,0.25046 -0.43996,0.56673 -0.44128,0.94952 -0.004,0.9132 0.86235,1.50946 1.73201,1.19236 l 0.33473,-0.12193 0.63768,0.53077 0.63768,0.53078 0.0252,0.30705 c 0.0475,0.57226 0.54116,0.96161 1.05438,0.83135 0.25506,-0.0647 0.11349,-0.15667 1.38159,0.89589 l 0.46041,0.3822 -0.15028,0.30603 c -0.0826,0.1684 -0.1763,0.30565 -0.20835,0.30433 -0.0321,-6.6e-4 -0.44856,-0.18576 -0.92561,-0.41055 l -0.86755,-0.4085 -0.0372,-0.25958 c -0.067,-0.46828 -0.40414,-0.76655 -0.86652,-0.76611 -0.21621,2.2e-4 -0.54942,0.16165 -0.66774,0.32346 -0.0542,0.0742 -0.16672,0.0371 -0.84056,-0.277 l -0.77772,-0.36273 -0.0321,-0.36991 c -0.0397,-0.45658 -0.21977,-0.75471 -0.58542,-0.96899 -0.87428,-0.51236 -1.92876,0.083 -1.92876,1.08888 0,0.58074 0.35809,1.04585 0.93449,1.21456 0.41131,0.1204 0.96407,-0.01 1.18861,-0.28041 0.0402,-0.0485 0.10685,-0.0881 0.14789,-0.0881 0.041,0 0.43596,0.16665 0.8778,0.37024 0.75104,0.34605 0.81185,0.3854 0.92937,0.60695 0.0785,0.14791 0.21091,0.28487 0.35247,0.36443 0.19498,0.10957 0.27566,0.12261 0.57552,0.0919 0.3481,-0.0357 0.35077,-0.0352 1.28937,0.40952 0.51726,0.24507 0.96095,0.46639 0.98607,0.4915 0.0251,0.0251 0.0309,0.10171 0.0129,0.17043 -0.0394,0.15046 -0.0716,0.15189 -1.05506,0.0406 -0.40012,-0.0453 -0.74583,-0.0827 -0.7685,-0.083 -0.0227,-3.1e-4 -0.10567,-0.10222 -0.1841,-0.22645 -0.18516,-0.29333 -0.43845,-0.44511 -0.74356,-0.44538 -0.28065,-2.5e-4 -0.41784,0.0606 -0.66569,0.2951 l -0.17965,0.16975 -0.77157,-0.0724 c -0.42449,-0.0399 -0.80033,-0.0948 -0.8351,-0.12194 -0.0348,-0.0271 -0.0779,-0.12337 -0.096,-0.21381 -0.042,-0.21029 -0.38731,-0.59306 -0.66022,-0.73229 -0.28722,-0.14666 -0.81794,-0.14592 -1.10732,0.002 -0.47334,0.24148 -0.79495,0.84853 -0.70462,1.33001 0.20311,1.08269 1.48789,1.4575 2.21839,0.64724 0.1114,-0.12356 0.21344,-0.25716 0.22679,-0.29715 0.0199,-0.0596 0.16847,-0.0599 0.82656,3.4e-4 0.69149,0.0632 0.81488,0.0893 0.89248,0.1882 0.0495,0.0631 0.16745,0.1961 0.26197,0.2951 0.31004,0.32472 0.8289,0.32069 1.19407,-0.009 l 0.21211,-0.19195 0.91775,0.0991 0.89761,0.0967 c 0.007,0.004 0.0143,0.008 0.0202,0.0123 v 0.35111 0.36137 l -0.91331,0.10075 -0.91366,0.10076 -0.1981,-0.17419 c -0.10892,-0.0956 -0.25954,-0.19701 -0.33507,-0.22576 -0.36968,-0.14056 -0.79255,0.009 -1.03354,0.36716 l -0.14653,0.21792 c -0.005,0.003 -0.014,0.005 -0.0202,0.008 l -0.803,0.0837 -0.81904,0.0857 -0.1052,-0.16942 c -0.26068,-0.42113 -0.64952,-0.64519 -1.11995,-0.64519 -0.64327,0 -1.15929,0.45448 -1.26478,1.11415 -0.0994,0.62167 0.39767,1.28387 1.05575,1.40618 0.28969,0.0538 0.67373,-0.0276 0.92014,-0.19503 0.22922,-0.15576 0.52018,-0.55233 0.52018,-0.70907 0,-0.15742 0.1389,-0.19781 0.94099,-0.27358 l 0.74527,-0.0704 0.17795,0.16839 c 0.24642,0.2331 0.38407,0.29395 0.66432,0.29374 0.30511,-2.7e-4 0.5584,-0.15208 0.74356,-0.4454 0.0784,-0.12422 0.17404,-0.22617 0.21211,-0.22644 0.0381,-2.8e-4 0.38377,-0.0377 0.76849,-0.0833 0.95746,-0.11358 1.09936,-0.1103 1.13499,0.026 0.0112,0.0429 0.006,0.0913 -0.0102,0.12638 -0.0134,0.0152 -0.0283,0.0306 -0.0485,0.0471 -0.0629,0.0408 -0.49874,0.25311 -1.01647,0.49423 -0.96834,0.451 -0.97786,0.45432 -1.31874,0.41942 -0.25822,-0.0265 -0.38586,-0.0134 -0.51472,0.0533 -0.18683,0.0966 -0.43808,0.36825 -0.4891,0.52907 -0.0299,0.0941 -1.54107,0.85046 -1.69923,0.85046 -0.035,0 -0.1716,-0.0757 -0.30331,-0.16839 -0.42512,-0.29924 -1.02508,-0.31013 -1.45399,-0.0263 -0.74642,0.49398 -0.72738,1.65165 0.0352,2.1231 0.21544,0.13318 0.34623,0.1711 0.64109,0.18478 0.31984,0.0149 0.4085,-0.004 0.64827,-0.13867 0.40094,-0.22477 0.60045,-0.5362 0.6411,-1.00076 l 0.0325,-0.37297 0.75449,-0.34838 0.75415,-0.34873 0.20937,0.16804 c 0.39415,0.31675 1.00566,0.25194 1.28185,-0.13593 0.0636,-0.0893 0.13225,-0.27891 0.15268,-0.42114 l 0.0331,-0.22986 c 0.0194,-0.0196 0.0642,-0.0484 0.10998,-0.0779 l 0.83851,-0.39006 c 0.51937,-0.24169 0.97653,-0.43958 1.01579,-0.43958 0.0393,0 0.12556,0.0921 0.19195,0.2046 0.0987,0.1672 0.10729,0.21674 0.0474,0.27153 -0.0403,0.0369 -0.44818,0.37856 -0.90682,0.75927 -0.8242,0.68417 -0.83765,0.69236 -1.13123,0.70122 -0.4992,0.0151 -0.83422,0.30783 -0.91399,0.79855 -0.0276,0.16979 -0.12426,0.2776 -0.64725,0.7217 -0.33817,0.28716 -0.65682,0.54568 -0.70804,0.57449 -0.0647,0.0364 -0.16723,0.0191 -0.33575,-0.0574 -0.48471,-0.21995 -0.99623,-0.12028 -1.38466,0.26984 -0.42128,0.42307 -0.50912,0.93711 -0.24933,1.45843 0.39047,0.78358 1.41044,0.95277 2.02677,0.33643 0.2987,-0.29869 0.43512,-0.70381 0.36752,-1.09195 -0.0262,-0.15077 -0.0485,-0.30447 -0.0498,-0.34155 -0.002,-0.0777 1.19731,-1.07962 1.29243,-1.07966 0.0347,-1e-5 0.15752,0.0396 0.27291,0.0878 0.26865,0.11225 0.59003,0.0618 0.81528,-0.12774 0.24884,-0.20937 0.33897,-0.42418 0.32483,-0.77362 -0.007,-0.16772 -0.002,-0.31383 0.0113,-0.32447 0.0129,-0.0106 0.39355,-0.32561 0.84569,-0.69985 0.45214,-0.37425 0.84263,-0.67932 0.86754,-0.67866 0.0249,6.6e-4 0.17926,0.12118 0.34327,0.26675 l 0.29817,0.2647 -0.69676,1.00656 -0.66433,0.95977 c -3e-4,2.7e-4 -6.6e-4,6.6e-4 -0.001,0.001 -0.0259,0.0236 -0.0483,0.0388 -0.0697,0.0498 l -0.23465,0.0242 c -0.33856,0.0353 -0.54373,0.18016 -0.69847,0.49287 -0.11711,0.23661 -0.118,0.27096 -0.0219,0.73775 0.0227,0.11009 -0.0759,0.28911 -0.46247,0.83954 l -0.49149,0.6995 -0.36307,-0.0188 c -0.4728,-0.0246 -0.77206,0.0946 -1.06189,0.42387 -0.3695,0.41977 -0.43557,0.91047 -0.18956,1.40413 0.17032,0.3418 0.41496,0.54658 0.78898,0.65988 0.47471,0.1438 0.96758,-0.0166 1.32114,-0.42967 0.34618,-0.40444 0.39307,-0.89942 0.13559,-1.42941 l -0.1192,-0.24557 0.41157,-0.60182 c 0.54509,-0.79778 0.54495,-0.79792 0.78046,-0.79924 0.29771,-0.002 0.64137,-0.17992 0.7801,-0.4044 0.13496,-0.21834 0.15836,-0.57317 0.0564,-0.85525 -0.0626,-0.1731 -0.0467,-0.20338 0.62266,-1.16504 0.37798,-0.54308 0.70451,-0.98743 0.72546,-0.98743 0.0209,0 0.1448,0.0514 0.27529,0.11442 0.20189,0.0976 0.23127,0.13316 0.19776,0.23806 -0.0216,0.0678 -0.19796,0.63903 -0.3921,1.26956 -0.19414,0.63053 -0.37291,1.1533 -0.39723,1.16196 -0.21401,0.0761 -0.49905,0.30101 -0.58406,0.46076 -0.1397,0.26252 -0.13323,0.633 0.0161,0.89863 l 0.12023,0.21381 -0.27461,0.88463 -0.2746,0.88462 -0.26881,0.0383 c -0.62901,0.09 -1.06394,0.6009 -1.06394,1.24975 0,1.00525 1.05576,1.59716 1.92158,1.07726 0.7165,-0.43025 0.82546,-1.39021 0.22577,-1.9899 -0.21604,-0.21604 -0.2174,-0.19952 0.11066,-1.24325 l 0.22338,-0.7118 0.21176,-0.0339 c 0.41573,-0.0665 0.74306,-0.56799 0.65988,-1.01134 -0.0209,-0.11135 -0.1132,-0.28826 -0.20527,-0.39312 l -0.14994,-0.17078 c -0.004,-0.016 -0.006,-0.0351 -0.006,-0.0577 l 0.35692,-1.15513 c 0.20281,-0.65621 0.38968,-1.2142 0.41533,-1.23984 0.0256,-0.026 0.1569,-0.0252 0.29134,0.001 l 0.24421,0.0482 0.015,1.40413 0.015,1.40447 -0.1438,0.0939 c -0.46995,0.30792 -0.48289,1.08426 -0.0239,1.4236 l 0.16565,0.12262 v 0.91399 0.91366 l -0.31969,0.18956 c -0.83816,0.49736 -0.84676,1.66355 -0.0161,2.16238 l 3.4e-4,6.6e-4 c 0.24933,0.14976 0.36039,0.18205 0.6288,0.18205 0.75898,0 1.29278,-0.52011 1.29278,-1.25931 0,-0.53393 -0.29535,-0.97794 -0.78831,-1.18451 l -0.18204,-0.0762 v -0.8853 -0.50618 l 3.3e-4,-0.37913 0.22953,-0.18444 c 0.24912,-0.20019 0.38562,-0.45877 0.38562,-0.7299 0,-0.25287 -0.19222,-0.58649 -0.41875,-0.72649 l -0.19708,-0.12193 v -0.15473 l 0.0134,-1.19782 0.015,-1.35187 0.46759,-0.0457 c 0.25711,-0.025 0.48041,-0.0323 0.49627,-0.0164 0.0475,0.0475 0.74288,2.32988 0.74288,2.43835 0,0.0551 -0.0396,0.13284 -0.0878,0.17283 -0.24139,0.20033 -0.32349,0.69583 -0.16599,1.00041 0.2183,0.42214 0.68614,0.59404 1.10868,0.40713 0.76503,-0.33841 0.70509,-1.34054 -0.097,-1.62375 l -0.27734,-0.098 -0.37947,-1.2255 c -0.20872,-0.674 -0.37341,-1.23048 -0.36614,-1.23642 0.0825,-0.069 0.90502,-0.40794 0.93893,-0.38699 0.0386,0.0239 1.45319,2.03368 1.58857,2.25699 0.027,0.0446 0.004,0.19904 -0.055,0.37332 -0.12722,0.37428 -0.0619,0.6416 0.22474,0.91947 0.16805,0.16285 0.24375,0.19416 0.51916,0.21346 0.26888,0.0188 0.35424,6.6e-4 0.51506,-0.10861 0.60034,-0.40799 0.52543,-1.27962 -0.13149,-1.5305 -0.13887,-0.0531 -0.33014,-0.085 -0.42524,-0.071 -0.20671,0.0303 -0.19016,0.0495 -1.16914,-1.37032 l -0.68584,-0.99426 0.27017,-0.24866 c 0.14851,-0.13667 0.28785,-0.24937 0.30979,-0.25069 0.022,-0.001 0.53831,0.36596 1.14728,0.81597 l 1.10732,0.81836 v 0.28691 c 0,0.51092 0.31353,0.87234 0.79309,0.91365 0.463,0.0399 0.85753,-0.2703 0.94645,-0.74424 0.0473,-0.25194 -0.16339,-0.67854 -0.41875,-0.84774 -0.22433,-0.14867 -0.60213,-0.16776 -0.84398,-0.0427 -0.16095,0.0832 -0.16225,0.0824 -1.24223,-0.70701 -0.59466,-0.43468 -1.10308,-0.80988 -1.12952,-0.83374 -0.0265,-0.0239 0.0315,-0.15912 0.12876,-0.30057 0.52954,-0.76966 0.79999,-1.65703 0.80197,-2.63475 0.002,-1.00933 -0.21265,-1.74575 -0.75415,-2.58283 l -0.24318,-0.3757 c -0.001,-0.01 -0.005,-0.021 -0.005,-0.0294 l 0.6148,-0.60045 c 0.34304,-0.33493 0.8663,-0.84494 1.16299,-1.13327 l 0.43104,-0.41875 c 0.0595,-0.0471 0.10531,-0.0785 0.14004,-0.0973 l 0.24831,0.0635 c 0.26089,0.0669 0.29775,0.0627 0.54887,-0.0632 0.3411,-0.17091 0.48026,-0.36332 0.5096,-0.70429 0.0399,-0.46298 -0.2703,-0.85719 -0.74424,-0.9461 -0.25433,-0.0477 -0.67781,0.16343 -0.85184,0.42455 -0.11002,0.16514 -0.1277,0.25278 -0.11203,0.55946 l 0.0184,0.36136 c -0.002,0.003 -0.003,0.005 -0.005,0.007 l -1.10527,1.05882 c -0.6104,0.58478 -1.14809,1.06326 -1.19509,1.06326 -0.11543,0 -0.73755,-0.48462 -0.74151,-0.57791 -0.002,-0.0409 0.24229,-0.48507 0.54238,-0.9871 l 0.54546,-0.91297 0.29613,-0.0249 c 0.36636,-0.0309 0.55899,-0.16444 0.73059,-0.50652 0.15934,-0.31764 0.12878,-0.62738 -0.0871,-0.88394 -0.43319,-0.51482 -1.15194,-0.42976 -1.45946,0.17248 -0.13967,0.27351 -0.13275,0.47444 0.028,0.81153 l 0.0881,0.18547 -0.54581,0.92869 c -0.30026,0.51087 -0.5651,0.94085 -0.58849,0.95532 -0.0325,0.0201 -0.69166,-0.21469 -0.76167,-0.27051 -0.002,-0.003 -0.003,-0.005 -0.005,-0.008 -0.005,-0.0136 0.11919,-0.4855 0.27837,-1.06121 l 0.29169,-1.0554 0.22132,-0.0762 c 0.55709,-0.19207 0.80322,-0.7596 0.5424,-1.25044 -0.41955,-0.78948 -1.63093,-0.47842 -1.63093,0.41875 0,0.23615 0.0671,0.38697 0.26846,0.60285 l 0.14277,0.15301 -0.26744,0.99392 c -0.14712,0.54672 -0.28843,1.03337 -0.31388,1.08136 -0.0379,0.0714 -0.10571,0.08 -0.37195,0.0468 -0.17903,-0.0223 -0.36932,-0.0428 -0.42319,-0.0454 -0.0899,-0.005 -0.098,-0.0982 -0.098,-1.14728 v -0.005 -3.4e-4 -1.1367 l 0.19741,-0.12227 c 0.10868,-0.0672 0.24713,-0.21936 0.30774,-0.33814 0.20733,-0.40641 0.10841,-0.80697 -0.27427,-1.11005 l -0.2302,-0.18239 -3.5e-4,-0.86482 -3.3e-4,-0.47441 v -0.44129 l 0.20971,-0.0874 c 0.58282,-0.24346 0.89522,-0.8944 0.71863,-1.49771 -0.16931,-0.57841 -0.63375,-0.93449 -1.21935,-0.93449 z m 8.53372,8.22804 c -0.43769,0.009 -0.85398,0.32586 -0.85695,0.75313 -6e-4,0.0923 -0.0194,0.19369 -0.042,0.22542 -0.0226,0.0317 -0.65502,0.34652 -1.40515,0.6995 -0.75013,0.35299 -1.37651,0.67511 -1.39218,0.71556 -0.0157,0.0405 -6.6e-4,0.13473 0.0335,0.20971 0.0342,0.075 0.0965,0.13628 0.13833,0.13628 0.0418,0 0.68932,-0.2911 1.4393,-0.6469 l 1.36383,-0.64691 0.29749,0.15063 c 0.23002,0.11638 0.34837,0.14356 0.52224,0.12023 0.41217,-0.0553 0.78011,-0.46333 0.78011,-0.86516 0,-0.25078 -0.22753,-0.63175 -0.44812,-0.75005 -0.13617,-0.073 -0.28446,-0.10433 -0.43036,-0.10144 z m -0.62948,2.5719 c -0.39466,0 -0.72094,0.25221 -0.81597,0.63085 -0.0428,0.17058 -0.0242,0.16344 -0.83783,0.31901 -0.33856,0.0647 -0.67227,0.14121 -0.74151,0.1701 -0.14069,0.0587 -0.16267,0.207 -0.0533,0.35658 0.0688,0.0941 0.11193,0.0913 0.86653,-0.057 l 0.79411,-0.15609 0.18273,0.17658 c 0.1005,0.0971 0.24548,0.2028 0.32243,0.23499 0.19938,0.0833 0.603,0.0349 0.77601,-0.0932 0.28749,-0.2129 0.41141,-0.46205 0.38629,-0.77567 -0.0396,-0.49411 -0.38,-0.80607 -0.8795,-0.80607 z m -0.014,2.29422 c -0.32629,0 -0.5448,0.10223 -0.73264,0.34224 l -0.13799,0.17624 -0.64895,-0.07 c -0.3569,-0.0385 -0.68741,-0.0549 -0.73434,-0.0369 -0.0912,0.035 -0.12006,0.34375 -0.0369,0.39518 0.0266,0.0164 0.29718,0.057 0.60147,0.0902 0.74524,0.0811 0.79201,0.0934 0.83306,0.2227 0.0562,0.17696 0.31408,0.45502 0.50071,0.53965 0.22033,0.0999 0.61849,0.0625 0.80334,-0.0755 0.7046,-0.52606 0.40554,-1.58379 -0.44778,-1.58379 z m -2.53502,2.06743 -0.003,0.004 c -4.6e-4,-1e-5 -0.003,-6.6e-4 -0.003,-6.6e-4 -0.12369,0 -0.18956,0.0966 -0.18956,0.27871 0,0.0797 0.23193,0.19419 1.07726,0.53214 0.59248,0.23687 1.10881,0.45676 1.14728,0.48842 0.0385,0.0317 0.07,0.12372 0.07,0.20459 2.9e-4,0.20306 0.18689,0.48997 0.40508,0.623 v 3.4e-4 c 0.24555,0.14948 0.66897,0.14828 0.91332,-0.003 0.20422,-0.12622 0.41635,-0.50766 0.41635,-0.74869 0,-0.23273 -0.15921,-0.52385 -0.37742,-0.69028 -0.27777,-0.21192 -0.68997,-0.21195 -1.011,3.4e-4 l -0.23328,0.15439 -1.04823,-0.42011 c -0.53373,-0.21388 -1.00824,-0.38494 -1.13122,-0.41022 z m 4.3432,1.6818 c -0.11007,0 -0.29572,0.35742 -0.24899,0.4792 0.013,0.0339 0.58261,0.28348 1.26614,0.55469 0.68353,0.27122 1.26493,0.51301 1.2921,0.53726 0.0272,0.0243 0.0591,0.15214 0.071,0.28418 0.0422,0.46805 0.29775,0.84013 0.72238,1.05198 0.5425,0.27065 1.29422,0.0542 1.61556,-0.46554 0.46731,-0.75586 0.0577,-1.74732 -0.79787,-1.9308 -0.40634,-0.0872 -0.90757,0.0533 -1.15138,0.32277 -0.0586,0.0647 -0.14724,0.11784 -0.19708,0.11784 -0.0498,0 -0.62496,-0.21418 -1.27809,-0.47579 -0.65314,-0.26161 -1.23538,-0.47579 -1.29381,-0.47579 z m -1.77642,2.12652 c -0.073,0 -0.35624,0.31397 -0.35624,0.39484 0,0.0584 0.26765,0.27084 1.25384,0.99494 l 0.71146,0.52258 -0.0383,0.30501 c -0.0501,0.40123 0.048,0.73847 0.30056,1.03354 0.11007,0.12859 0.30245,0.28041 0.42729,0.33712 v 3.3e-4 c 0.1324,0.0602 0.35498,0.10281 0.53453,0.10281 0.39451,0 0.7075,-0.14246 0.95976,-0.43719 0.55772,-0.65156 0.36038,-1.57341 -0.42284,-1.97691 -0.29767,-0.15364 -0.77951,-0.15165 -1.08546,0.005 -0.12669,0.0646 -0.25149,0.11749 -0.27734,0.11749 -0.0258,0 -0.47314,-0.31478 -0.99392,-0.6995 -0.52079,-0.38473 -0.97677,-0.6995 -1.01339,-0.6995 z m -2.04488,1.8034 c -0.0413,-0.009 -0.16299,0.058 -0.27052,0.1479 l -0.19537,0.1636 0.4997,0.73298 0.49969,0.73331 -0.12774,0.25583 c -0.16616,0.33271 -0.20389,0.6353 -0.11715,0.94507 0.0886,0.31637 0.40356,0.68709 0.69711,0.82042 0.48034,0.21818 1.10136,0.0943 1.46971,-0.2934 0.45622,-0.48019 0.4594,-1.18312 0.008,-1.6965 -0.28022,-0.31836 -0.58213,-0.43707 -1.05164,-0.41327 l -0.10383,0.005 c -0.0107,3.4e-4 -0.0209,-1.7e-4 -0.0318,3.5e-4 l -0.23055,0.0109 -0.48432,-0.69745 c -0.26717,-0.38472 -0.51959,-0.70635 -0.56083,-0.71487 z m -2.7198,1.01032 c -0.13045,-0.0176 -0.43242,0.14035 -0.44983,0.25548 -0.01,0.0641 0.0972,0.4853 0.23772,0.93586 l 0.25549,0.81905 -0.24353,0.27119 c -0.14607,0.16246 -0.27255,0.37316 -0.31526,0.52566 -0.16375,0.58486 0.16407,1.26521 0.72683,1.50898 0.27173,0.11767 0.76219,0.10928 1.03525,-0.0174 0.5805,-0.26934 0.86956,-0.90706 0.69541,-1.53426 -0.11421,-0.41129 -0.67224,-0.87745 -1.05029,-0.87745 -0.0898,0 -0.18905,-0.0315 -0.22064,-0.07 -0.0316,-0.0385 -0.17457,-0.44754 -0.31764,-0.90922 -0.14308,-0.46167 -0.28235,-0.86189 -0.30945,-0.88906 -0.0103,-0.0103 -0.0255,-0.0162 -0.0441,-0.0188 z"
             style="opacity:1;vector-effect:none;fill:#552462;fill-opacity:1;stroke-width:0.0559602;stroke-linecap:butt;stroke-linejoin:miter;stroke-miterlimit:4;stroke-dasharray:none;stroke-dashoffset:0;stroke-opacity:1" />
          <path
             inkscape:connector-curvature="0"
             id="path6410"
             d="m 249.92051,145.47856 c -0.0122,-5e-5 -0.0257,0.003 -0.0379,0.004 -0.71708,0.005 -1.1693,0.73616 -0.76098,1.40856 0.0605,0.0996 0.1835,0.22482 0.27358,0.27803 0.0901,0.0532 0.1629,0.13554 0.16224,0.18273 -6.6e-4,0.0472 -0.12298,1.09315 -0.27154,2.32427 -0.14855,1.23113 -0.25906,2.26813 -0.24557,2.30481 0.0135,0.0367 0.0792,0.076 0.14584,0.0871 0.1648,0.0275 0.31636,-0.053 0.31901,-0.16941 0.001,-0.0528 0.12132,-1.08854 0.26709,-2.30139 0.23891,-1.98778 0.27604,-2.21084 0.37571,-2.26451 0.5396,-0.29056 0.70736,-0.51754 0.70736,-0.95635 0,-0.44099 -0.2531,-0.75529 -0.69472,-0.86242 -0.0323,-0.008 -0.0635,-0.0114 -0.095,-0.0164 -0.0155,-0.003 -0.0309,-0.005 -0.0451,-0.008 -0.0116,-10e-4 -0.0233,-0.003 -0.0348,-0.004 -0.0215,-0.003 -0.0447,-0.007 -0.0652,-0.008 z m -10.72036,0.87574 c -0.45605,-0.0185 -0.89787,0.227 -1.13942,0.67082 -0.10213,0.18767 -0.13573,0.27631 -0.1356,0.44846 -0.0202,0.15176 -0.01,0.30857 0.0369,0.46485 0.0133,0.10532 0.0275,0.19475 0.0393,0.23089 0.0319,0.0979 -0.31851,0.45705 -2.2604,2.31539 -1.26406,1.20968 -2.29832,2.21814 -2.29832,2.24094 0,0.0228 0.0531,0.10915 0.11818,0.19195 0.0674,0.0857 0.13744,0.12832 0.20937,0.13253 0.0151,0.007 0.0284,0.012 0.0379,0.012 0.005,0 0.0323,-0.0217 0.0731,-0.0564 0.31826,-0.23422 1.61486,-1.45169 4.127,-3.87425 l 0.31115,-0.30022 c 0.0745,-0.0679 0.14523,-0.13251 0.1496,-0.13286 l 0.19503,0.0816 c 0.27487,0.11485 0.74385,0.10517 1.02125,-0.0208 0.47249,-0.21461 0.80814,-0.81113 0.73024,-1.29825 -0.0759,-0.47461 -0.32381,-0.79932 -0.76132,-0.99768 -0.14831,-0.0672 -0.30192,-0.1028 -0.45393,-0.10896 z m 5.6271,1.62238 c -0.12624,0.001 -0.25218,0.0385 -0.40269,0.11135 -0.28879,0.13981 -0.49176,0.42483 -0.54649,0.76781 -0.0453,0.28416 0.15139,0.18064 -2.62211,1.38227 -0.91949,0.39838 -1.68465,0.75757 -1.70025,0.79822 -0.0156,0.0406 -3.6e-4,0.13541 0.0338,0.21039 0.0342,0.075 0.0986,0.13628 0.14311,0.13628 1.7e-4,0 0.003,-0.001 0.003,-0.001 2.1e-4,3e-5 10e-4,0.001 10e-4,0.001 1.6e-4,0 0.0255,-0.0112 0.026,-0.0112 0.11137,-0.0302 1.04571,-0.42345 2.16273,-0.91126 l 1.58788,-0.69336 c 0.34898,-0.13922 0.52616,-0.19544 0.58678,-0.18751 l 0.18923,0.12569 c 0.54299,0.35967 1.17734,0.15102 1.43794,-0.47271 0.17234,-0.41247 -0.0615,-0.95754 -0.49525,-1.15445 -0.15227,-0.0692 -0.27884,-0.10299 -0.40508,-0.10144 z m 12.30551,1.39969 c -0.13281,6.6e-4 -0.26819,0.0313 -0.39894,0.098 -0.28457,0.14524 -0.40228,0.2895 -0.51267,0.62811 l -0.0745,0.22851 c -0.0278,0.0354 -0.0604,0.0651 -0.0963,0.084 l -2.10227,0.65408 c -1.19832,0.37288 -2.21225,0.69977 -2.25323,0.72614 -0.0851,0.0547 -0.0409,0.31664 0.0649,0.3839 0.036,0.0229 0.0663,0.0419 0.0676,0.0424 0.001,4.7e-4 1.0081,-0.31171 2.23821,-0.69404 l 2.22385,-0.69165 0.0837,0.0639 0.097,0.0926 c 0.54547,0.52016 1.39884,0.27878 1.5954,-0.45119 0.16456,-0.61111 -0.3573,-1.16815 -0.93279,-1.1647 z m -10.08438,0.62197 c -0.0587,-6.1e-4 -0.11363,0.0144 -0.14584,0.0485 -0.0401,0.0424 -0.30446,1.08424 -0.58714,2.31505 -0.27966,1.2177 -0.5084,2.19466 -0.51848,2.21839 -0.005,0.009 -0.0102,0.0196 -0.0167,0.028 -0.0134,0.005 -0.1173,0.0444 -0.24352,0.0912 -0.0694,0.0171 -0.13933,0.0519 -0.20733,0.0987 -0.47231,0.28442 -0.61366,0.86653 -0.28793,1.34367 0.0685,0.10034 0.21245,0.22891 0.31969,0.28588 0.57457,0.30532 1.31423,-0.0707 1.38569,-0.70462 0.0395,-0.34991 -0.0139,-0.50698 -0.26505,-0.77943 l -0.21961,-0.23806 0.52428,-2.25733 c 0.28831,-1.24146 0.51097,-2.29132 0.49491,-2.33316 -0.0274,-0.0714 -0.13506,-0.11579 -0.23294,-0.11681 z m -7.14395,2.01483 c -0.0437,6.6e-4 -0.0863,0.005 -0.12671,0.0129 -0.21555,0.0405 -0.41161,0.13012 -0.57723,0.25412 -0.0566,0.0412 -0.10856,0.088 -0.15643,0.13969 -0.21196,0.21694 -0.34828,0.49861 -0.36375,0.80471 -0.007,0.14449 -0.028,0.28665 -0.0461,0.31593 -0.0181,0.0293 -0.70524,0.36816 -1.52709,0.75279 -0.82185,0.38462 -1.50796,0.73306 -1.52436,0.7743 -0.003,0.008 -0.003,0.0211 -0.003,0.0345 -0.005,0.0161 -4.6e-4,0.0378 0.007,0.0608 0.0103,0.0513 0.0297,0.11245 0.0574,0.17044 0.05,0.10493 0.12638,0.19058 0.1694,0.19058 3.1e-4,0 0.004,-0.002 0.004,-0.002 3.4e-4,6e-5 0.002,0.002 0.002,0.002 5.5e-4,0 0.0312,-0.0142 0.0335,-0.015 0.12046,-0.0385 0.75999,-0.32595 1.52025,-0.68481 0.81506,-0.38473 1.52012,-0.6995 1.56671,-0.6995 0.0466,0 0.11762,0.0396 0.1578,0.0881 0.0402,0.0484 0.16312,0.13342 0.2729,0.18855 1.27594,0.64092 2.46112,-0.99542 1.45195,-2.00459 -0.23824,-0.23824 -0.61168,-0.39032 -0.9181,-0.38391 z m 15.33988,1.33855 c -0.11151,-0.006 -0.22398,0.007 -0.33097,0.0427 -0.18504,0.0611 -0.55352,0.40189 -0.60659,0.56117 -0.0186,0.0559 -0.49583,0.0512 -2.35844,-0.0229 -1.28433,-0.0511 -2.35992,-0.0775 -2.39019,-0.0588 -0.0464,0.0288 -0.0827,0.40446 -0.041,0.4266 0.008,0.004 1.06991,0.0497 2.36048,0.10144 2.16311,0.0867 2.35112,0.10214 2.40624,0.19708 0.12909,0.22229 0.40151,0.4973 0.5622,0.56732 0.12665,0.0552 0.26658,0.074 0.40611,0.0669 0.006,3e-5 0.0116,-2.5e-4 0.0174,-3.4e-4 0.026,-0.002 0.0517,-0.004 0.0775,-0.008 0.0345,-0.004 0.0685,-0.0111 0.10212,-0.0202 0.0214,-0.005 0.0422,-0.0118 0.0632,-0.0184 0.009,-0.003 0.0178,-0.006 0.0266,-0.01 0.1835,-0.0639 0.34959,-0.1762 0.46076,-0.33233 0.0954,-0.13396 0.14691,-0.31628 0.15404,-0.50175 0.005,-0.0779 0.003,-0.15563 -0.0147,-0.23191 -0.0156,-0.0892 -0.0422,-0.17472 -0.081,-0.25071 -0.15245,-0.29882 -0.4794,-0.49096 -0.81392,-0.50891 z m -16.29452,2.75497 c -0.0389,4.8e-4 -0.0766,0.003 -0.11203,0.009 -0.49456,0.0742 -0.99408,0.5331 -1.06531,0.97855 -0.021,0.13159 -0.071,0.22842 -0.12603,0.24421 -0.05,0.0144 -0.6198,0.12998 -1.26614,0.25685 -0.64634,0.12687 -1.2191,0.2433 -1.27297,0.2589 -0.12039,0.0348 -0.13399,0.34191 -0.0219,0.49525 0.0157,0.0213 0.0325,0.0365 0.0581,0.0468 2.4e-4,1e-4 4.3e-4,5.9e-4 6.6e-4,6.6e-4 5e-5,2e-5 6.3e-4,-2e-5 6.6e-4,0 0.0957,0.037 0.34158,-0.01 1.34504,-0.21552 l 0.96421,-0.19742 c 0.14531,-0.0255 0.30057,-0.0529 0.32414,-0.0529 0.0259,0 0.0537,0.0114 0.0816,0.0276 l 0.15508,0.18683 c 0.19063,0.22952 0.39901,0.36983 0.68754,0.46316 0.16747,0.0542 0.64432,0.0114 0.80743,-0.0724 0.45879,-0.23592 0.75796,-0.69673 0.75928,-1.16811 6.6e-4,-0.32468 -0.22597,-0.78968 -0.47852,-0.98231 -0.22384,-0.17073 -0.56852,-0.28204 -0.8409,-0.27871 z m 3.17031,0.43583 c -0.0745,-0.0255 -0.28924,0.22566 -0.2712,0.3173 0.009,0.0439 0.89695,0.72951 1.97418,1.52333 l 1.95848,1.44307 -0.0178,0.26505 c -0.0312,0.46414 0.16857,0.82757 0.57757,1.05095 0.12334,0.0674 0.29488,0.091 0.46894,0.0786 3.5e-4,-2e-5 6.7e-4,2e-5 0.001,0 0.19841,-0.0143 0.40005,-0.0762 0.53795,-0.18137 0.36191,-0.27604 0.50794,-0.77293 0.34325,-1.16708 -0.10256,-0.24547 -0.43356,-0.52506 -0.70974,-0.59943 -0.2374,-0.0639 -0.33953,-0.0499 -0.67696,0.0932 l -0.1257,0.0533 c -0.0485,0.01 -0.0894,0.013 -0.10997,0.005 -0.005,-0.002 -0.052,-0.0354 -0.0728,-0.0492 l -1.86146,-1.3693 c -1.08152,-0.7956 -1.98856,-1.45424 -2.01585,-1.46355 z m -0.85525,3.79534 c -0.47481,0.002 -0.87689,0.24999 -1.14045,0.70292 -0.007,0.0108 -0.0143,0.0197 -0.0236,0.028 -0.002,0.002 -0.004,0.003 -0.006,0.006 -0.0877,0.0631 -0.40681,0.0308 -2.4609,-0.19298 -2.26282,-0.24655 -2.43364,-0.25808 -2.49881,-0.1701 -0.0385,0.052 -0.07,0.17711 -0.07,0.27837 0,0.14492 0.0269,0.1904 0.12603,0.21347 0.0693,0.0161 1.16786,0.14314 2.44143,0.28213 1.27356,0.13898 2.33469,0.26423 2.35808,0.2787 0.0234,0.0145 0.0598,0.0961 0.081,0.18102 0.0928,0.3718 0.39089,0.68019 0.80709,0.83579 0.46843,0.17513 1.1265,-0.0418 1.42052,-0.46827 0.59165,-0.85812 0.005,-1.97883 -1.03456,-1.97487 z"
             style="opacity:1;vector-effect:none;fill:#69b151;fill-opacity:1;stroke-width:0.0559602;stroke-linecap:butt;stroke-linejoin:miter;stroke-miterlimit:4;stroke-dasharray:none;stroke-dashoffset:0;stroke-opacity:1" />
          <path
             inkscape:connector-curvature="0"
             id="path5654"
             d="m 226.7056,162.88026 c 0.70402,-0.12277 1.2274,-0.38781 1.70095,-0.86135 1.37209,-1.37209 1.19752,-3.61963 -0.36791,-4.73669 -1.35941,-0.97007 -3.28525,-0.68719 -4.27857,0.62845 -0.4922,0.65192 -0.66361,1.25087 -0.60798,2.12454 0.0574,0.90193 0.42069,1.62453 1.08855,2.16535 0.53452,0.43285 1.03952,0.63167 1.93366,0.76129 0.019,0.003 0.25814,-0.034 0.5313,-0.0816 z"
             style="opacity:1;vector-effect:none;fill:#69b151;fill-opacity:1;stroke-width:0.0559602;stroke-linecap:butt;stroke-linejoin:miter;stroke-miterlimit:4;stroke-dasharray:none;stroke-dashoffset:0;stroke-opacity:1" />
        </g>
      </g>
      <text
         id="text837-8-1-0"
         y="186.64404"
         x="77.251907"
         style="font-style:normal;font-weight:normal;font-size:9.26476px;line-height:1;font-family:sans-serif;letter-spacing:0px;word-spacing:0px;display:inline;fill:#000000;fill-opacity:1;stroke:none;stroke-width:0.231619"
         xml:space="preserve"><tspan
           id="tspan6638"
           style="font-size:6.17651px;line-height:1;stroke-width:0.231619"
           y="186.64404"
           x="77.251907"
           sodipodi:role="line">update gets pulled and deployed</tspan></text>
      <text
         id="text837-7"
         y="214.74695"
         x="77.251907"
         style="font-style:normal;font-weight:normal;font-size:9.26476px;line-height:1;font-family:sans-serif;letter-spacing:0px;word-spacing:0px;display:inline;fill:#000000;fill-opacity:1;stroke:none;stroke-width:0.231619"
         xml:space="preserve"><tspan
           id="tspan851-7"
           style="font-size:6.17651px;line-height:1;stroke-width:0.231619"
           y="214.74695"
           x="77.251907"
           sodipodi:role="line">reports update status</tspan><tspan
           id="tspan6688"
           style="font-size:6.17651px;line-height:1;stroke-width:0.231619"
           y="224.0117"
           x="77.251907"
           sodipodi:role="line">(in progres, applied, failed, etc.)</tspan></text>
      <path
         sodipodi:nodetypes="cc"
         inkscape:connector-curvature="0"
         id="path901-2"
         d="M 63.107754,229.60872 H 206.4868"
         style="display:inline;opacity:1;vector-effect:none;fill:none;fill-opacity:1;stroke:#000000;stroke-width:0.834831;stroke-linecap:butt;stroke-linejoin:miter;stroke-miterlimit:4;stroke-dasharray:none;stroke-dashoffset:0;stroke-opacity:1;marker-end:url(#Arrow2Lend-87)" />
      <rect
         ry="2.9616454"
         y="181.29623"
         x="230.98152"
         height="43.695213"
         width="47.933113"
         id="rect6571-1-4"
         style="display:inline;opacity:1;vector-effect:none;fill:#ffffff;fill-opacity:1;stroke:#552462;stroke-width:0.572817;stroke-linecap:butt;stroke-linejoin:miter;stroke-miterlimit:4;stroke-dasharray:none;stroke-dashoffset:0;stroke-opacity:1" />
      <text
         id="text825"
         y="194.19841"
         x="254.21707"
         style="font-style:normal;font-weight:normal;font-size:9.26476px;line-height:1.25;font-family:sans-serif;text-align:center;letter-spacing:0px;word-spacing:0px;text-anchor:middle;fill:#000000;fill-opacity:1;stroke:none;stroke-width:0.231619"
         xml:space="preserve"><tspan
           style="text-align:center;text-anchor:middle;stroke-width:0.231619"
           y="194.19841"
           x="254.21707"
           id="tspan823"
           sodipodi:role="line">OSTree</tspan><tspan
           id="tspan827"
           style="text-align:center;text-anchor:middle;stroke-width:0.231619"
           y="205.77936"
           x="254.21707"
           sodipodi:role="line">static</tspan><tspan
           style="text-align:center;text-anchor:middle;stroke-width:0.231619"
           y="217.36031"
           x="254.21707"
           sodipodi:role="line"
           id="tspan1186">deltas</tspan></text>
      <path
         sodipodi:nodetypes="cc"
         inkscape:connector-curvature="0"
         id="path901-49"
         d="M 65.655981,166.65641 H 209.03503"
         style="display:inline;opacity:1;vector-effect:none;fill:none;fill-opacity:1;stroke:#000000;stroke-width:0.834832;stroke-linecap:butt;stroke-linejoin:miter;stroke-miterlimit:4;stroke-dasharray:none;stroke-dashoffset:0;stroke-opacity:1;marker-end:url(#Arrow2Lend-0)" />
      <path
         sodipodi:nodetypes="cc"
         inkscape:connector-curvature="0"
         id="path901-4-0"
         d="M 210.36592,192.46791 H 66.986873"
         style="display:inline;fill:none;stroke:#000000;stroke-width:0.834832;stroke-linecap:butt;stroke-linejoin:miter;stroke-miterlimit:4;stroke-dasharray:none;stroke-opacity:1;marker-end:url(#Arrow2Lend-6-5)" />
    </g>
  </g>
</svg>
